<?xml version="1.0" encoding="utf-8" ?><svg xmlns="http://www.w3.org/2000/svg" xmlns:xlink="http://www.w3.org/1999/xlink" width="147" height="125" viewBox="0 0 147 125" xmlns:c2pa="http://c2pa.org/manifest"><metadata><c2pa:manifest>AAAk9mp1bWIAAAAeanVtZGMycGEAEQAQgAAAqgA4m3EDYzJwYQAAAA6CanVtYgAAAEdqdW1kYzJtYQARABCAAACqADibcQN1cm46YzJwYTo5ZTMyMmI1Yi00NDRkLTRmM2EtOGJiNy0xNjQ5NjFjM2UyZjcAAAADs2p1bWIAAAApanVtZGMyYXMAEQAQgAAAqgA4m3EDYzJwYS5hc3NlcnRpb25zAAAAAMlqdW1iAAAARGp1bWRjYm9yABEAEIAAAKoAOJtxE2MycGEuaW5ncmVkaWVudC52MwAAAAAYYzJzaKVX3HKfS4wE8kxNNcAPGiEAAAB9Y2JvcqRscmVsYXRpb25zaGlwaHBhcmVudE9maGRjOnRpdGxlZnNvdXJjZWlkYzpmb3JtYXRqaW1hZ2Uvd2VicGppbnN0YW5jZUlEeCx4bXA6aWlkOjYzYTgxNTBmLWUyMWQtNGE0ZS05NjY2LWRlYjhjY2IzNmRlMQAAAfVqdW1iAAAAQWp1bWRjYm9yABEAEIAAAKoAOJtxE2MycGEuYWN0aW9ucy52MgAAAAAYYzJzaCn3XjgEZ4KMApvT2QN0R3EAAAGsY2JvcqFnYWN0aW9uc4KiZmFjdGlvbmtjMnBhLm9wZW5lZGpwYXJhbWV0ZXJzoWtpbmdyZWRpZW50c4GiY3VybHgtc2VsZiNqdW1iZj1jMnBhLmFzc2VydGlvbnMvYzJwYS5pbmdyZWRpZW50LnYzZGhhc2hYIDnxbP6w6JLEdtoUxruloY9EAGBZDuKDx9ROO3I1amgCpGZhY3Rpb25rYzJwYS5lZGl0ZWRqcGFyYW1ldGVyc6FraW5ncmVkaWVudHOBomN1cmx4LXNlbGYjanVtYmY9YzJwYS5hc3NlcnRpb25zL2MycGEuaW5ncmVkaWVudC52M2RoYXNoWCA58Wz+sOiSxHbaFMa7paGPRABgWQ7ig8fUTjtyNWpoAnFkaWdpdGFsU291cmNlVHlwZXhTaHR0cDovL2N2LmlwdGMub3JnL25ld3Njb2Rlcy9kaWdpdGFsc291cmNldHlwZS9jb21wb3NpdGVXaXRoVHJhaW5lZEFsZ29yaXRobWljTWVkaWFrZGVzY3JpcHRpb252Q3JlYXRlZCBieSBSZWNyYWZ0IEFJLgAAAMRqdW1iAAAAQGp1bWRjYm9yABEAEIAAAKoAOJtxE2MycGEuaGFzaC5kYXRhAAAAABhjMnNou1xsqgTUaH4k9lyC1UBbBQAAAHxjYm9ypWpleGNsdXNpb25zgaJlc3RhcnQY12ZsZW5ndGgZE4xkbmFtZW5qdW1iZiBtYW5pZmVzdGNhbGdmc2hhMjU2ZGhhc2hYIDbmtv7IXh/UQXcWp9jRbv+GHmHDrwVOxPqJ5SRs6WXjY3BhZEkAAAAAAAAAAAAAAAKkanVtYgAAACdqdW1kYzJjbAARABCAAACqADibcQNjMnBhLmNsYWltLnYyAAAAAnVjYm9yp2ppbnN0YW5jZUlEeCx4bXA6aWlkOjE5MzUyZTkwLWYxNGQtNDE3Mi04ZGIxLWQ1YWQyOTA1YjQwZXRjbGFpbV9nZW5lcmF0b3JfaW5mb6NkbmFtZWpyZWNyYWZ0LmFpZ3ZlcnNpb254KDgxY2U4MmUyYzVjM2NiZmJlOGM2ZmJlMTc5ZDVmOGQ5MWM0MDljZTF3b3JnLmNvbnRlbnRhdXRoLmMycGFfcnNmMC45MC43aXNpZ25hdHVyZXhNc2VsZiNqdW1iZj0vYzJwYS91cm46YzJwYTo5ZTMyMmI1Yi00NDRkLTRmM2EtOGJiNy0xNjQ5NjFjM2UyZjcvYzJwYS5zaWduYXR1cmVyY3JlYXRlZF9hc3NlcnRpb25zgqJjdXJseCpzZWxmI2p1bWJmPWMycGEuYXNzZXJ0aW9ucy9jMnBhLmFjdGlvbnMudjJkaGFzaFggCsxayE7yQ0Ymlfm5mT1uMfn6tgg5WX7hS8Gp0keYIvyiY3VybHgpc2VsZiNqdW1iZj1jMnBhLmFzc2VydGlvbnMvYzJwYS5oYXNoLmRhdGFkaGFzaFggI89Wg9234Ng2o4RFheAz8D9UfWVUo0OEIWkd3QX7mYhzZ2F0aGVyZWRfYXNzZXJ0aW9uc4GiY3VybHgtc2VsZiNqdW1iZj1jMnBhLmFzc2VydGlvbnMvYzJwYS5pbmdyZWRpZW50LnYzZGhhc2hYIDnxbP6w6JLEdtoUxruloY9EAGBZDuKDx9ROO3I1amgCaGRjOnRpdGxleBpSZWNyYWZ0IEFJIEdlbmVyYXRlZCBJbWFnZWNhbGdmc2hhMjU2AAAH3Gp1bWIAAAAoanVtZGMyY3MAEQAQgAAAqgA4m3EDYzJwYS5zaWduYXR1cmUAAAAHrGNib3LShFkDsKIBJhghglkB5zCCAeMwggGJoAMCAQICCQC33lpjQ1FuejAKBggqhkjOPQQDAjBAMR8wHQYDVQQDDBZSZWNyYWZ0IFN0YWdpbmcgRGV2IENBMRAwDgYDVQQKDAdSZWNyYWZ0MQswCQYDVQQGEwJVUzAeFw0yNjA2MTIxOTQzNTBaFw0yNzA2MTIxOTQzNTBaMDcxCzAJBgNVBAYTAlVTMRMwEQYDVQQKEwpSZWNyYWZ0IEFJMRMwEQYDVQQDEwpyZWNyYWZ0LmFpMFkwEwYHKoZIzj0CAQYIKoZIzj0DAQcDQgAESmk1WwArIPw3hty3jsWHSA/1QOhBRu9xOjpJ2/iiIghScoEVM+Lnjds/7dqmG+giFL0vEb4DoogpX6KrGLcPNaN1MHMwDAYDVR0TAQH/BAIwADAOBgNVHQ8BAf8EBAMCBsAwEwYDVR0lBAwwCgYIKwYBBQUHAwQwHQYDVR0OBBYEFC8x6QXp/eki9cuCDx2vDJDLIV39MB8GA1UdIwQYMBaAFAILKjgayqqXSv/5v5MWaO2UeHm3MAoGCCqGSM49BAMCA0gAMEUCIFPISltGl775PEkIFRTZGsevWJvWnvBrE9kWU0MPgedQAiEAtA+AZBKEQ+DdK9mUZDctB2Wlt1iAsv0GRjfeYpReMsxZAb0wggG5MIIBX6ADAgECAgkAnPloO0+gE28wCgYIKoZIzj0EAwIwQDEfMB0GA1UEAwwWUmVjcmFmdCBTdGFnaW5nIERldiBDQTEQMA4GA1UECgwHUmVjcmFmdDELMAkGA1UEBhMCVVMwHhcNMjYwNjEyMTk0MDE2WhcNMjgwNjExMTk0MDE2WjBAMR8wHQYDVQQDDBZSZWNyYWZ0IFN0YWdpbmcgRGV2IENBMRAwDgYDVQQKDAdSZWNyYWZ0MQswCQYDVQQGEwJVUzBZMBMGByqGSM49AgEGCCqGSM49AwEHA0IABEPSEAZXFWymij2K0EnzoS/9NLO8VAwu0YpyLizvyNZPfcvcoeqFhfZD8Wj/rcdb9T3ji98q1arie99B9GRog8qjQjBAMA8GA1UdEwEB/wQFMAMBAf8wDgYDVR0PAQH/BAQDAgGGMB0GA1UdDgQWBBQCCyo4Gsqql0r/+b+TFmjtlHh5tzAKBggqhkjOPQQDAgNIADBFAiBUMDSJi5WA3kIY4BfmYqk24HLs0qpjicN0NpUP4bvNxQIhAPTvHC5v8X6FS6geI7XW7h84t1i/qdkTfg0RpMKWLMFboWNwYWRZA6QAAAAAAAAAAAAAAAAAAAAAAAAAAAAAAAAAAAAAAAAAAAAAAAAAAAAAAAAAAAAAAAAAAAAAAAAAAAAAAAAAAAAAAAAAAAAAAAAAAAAAAAAAAAAAAAAAAAAAAAAAAAAAAAAAAAAAAAAAAAAAAAAAAAAAAAAAAAAAAAAAAAAAAAAAAAAAAAAAAAAAAAAAAAAAAAAAAAAAAAAAAAAAAAAAAAAAAAAAAAAAAAAAAAAAAAAAAAAAAAAAAAAAAAAAAAAAAAAAAAAAAAAAAAAAAAAAAAAAAAAAAAAAAAAAAAAAAAAAAAAAAAAAAAAAAAAAAAAAAAAAAAAAAAAAAAAAAAAAAAAAAAAAAAAAAAAAAAAAAAAAAAAAAAAAAAAAAAAAAAAAAAAAAAAAAAAAAAAAAAAAAAAAAAAAAAAAAAAAAAAAAAAAAAAAAAAAAAAAAAAAAAAAAAAAAAAAAAAAAAAAAAAAAAAAAAAAAAAAAAAAAAAAAAAAAAAAAAAAAAAAAAAAAAAAAAAAAAAAAAAAAAAAAAAAAAAAAAAAAAAAAAAAAAAAAAAAAAAAAAAAAAAAAAAAAAAAAAAAAAAAAAAAAAAAAAAAAAAAAAAAAAAAAAAAAAAAAAAAAAAAAAAAAAAAAAAAAAAAAAAAAAAAAAAAAAAAAAAAAAAAAAAAAAAAAAAAAAAAAAAAAAAAAAAAAAAAAAAAAAAAAAAAAAAAAAAAAAAAAAAAAAAAAAAAAAAAAAAAAAAAAAAAAAAAAAAAAAAAAAAAAAAAAAAAAAAAAAAAAAAAAAAAAAAAAAAAAAAAAAAAAAAAAAAAAAAAAAAAAAAAAAAAAAAAAAAAAAAAAAAAAAAAAAAAAAAAAAAAAAAAAAAAAAAAAAAAAAAAAAAAAAAAAAAAAAAAAAAAAAAAAAAAAAAAAAAAAAAAAAAAAAAAAAAAAAAAAAAAAAAAAAAAAAAAAAAAAAAAAAAAAAAAAAAAAAAAAAAAAAAAAAAAAAAAAAAAAAAAAAAAAAAAAAAAAAAAAAAAAAAAAAAAAAAAAAAAAAAAAAAAAAAAAAAAAAAAAAAAAAAAAAAAAAAAAAAAAAAAAAAAAAAAAAAAAAAAAAAAAAAAAAAAAAAAAAAAAAAAAAAAAAAAAAAAAAAAAAAAAAAAAAAAAAAAAAAAAAAAAAAAAAAAAAAAAAAAAAAAAAAAAAAAAAAAAAAAAAAAAAAAAAAAAAAAAAAAAAAAAAAAAAAAAAAAAAAAAAAAAAAAAPZYQCsjOFUO7ZnT3E1sC6mniY1PmzWNkmVlpno0BiOzQCDYOChGIEElbCqLFhIS6INY+jvuPS558phOK7OrDkIWwO8AABZOanVtYgAAAEdqdW1kYzJtYQARABCAAACqADibcQN1cm46YzJwYTplODNiNTQ4MS02OTI4LTQyZDYtYjIwOC01OTY0ZWIyZDUwODUAAAALf2p1bWIAAAApanVtZGMyYXMAEQAQgAAAqgA4m3EDYzJwYS5hc3NlcnRpb25zAAAACJVqdW1iAAAARGp1bWRjYm9yABEAEIAAAKoAOJtxE2MycGEuaW5ncmVkaWVudC52MwAAAAAYYzJzaBLqlRw5knDFAZ58qHYFGTEAAAhJY2JvcqdscmVsYXRpb25zaGlwaHBhcmVudE9maGRjOnRpdGxlZnNvdXJjZWlkYzpmb3JtYXRtaW1hZ2Uvc3ZnK3htbHF2YWxpZGF0aW9uUmVzdWx0c6JuYWN0aXZlTWFuaWZlc3SjZ3N1Y2Nlc3OGo2Rjb2RleB1jbGFpbVNpZ25hdHVyZS5pbnNpZGVWYWxpZGl0eWN1cmx4TXNlbGYjanVtYmY9L2MycGEvdXJuOmMycGE6OWUzMjJiNWItNDQ0ZC00ZjNhLThiYjctMTY0OTYxYzNlMmY3L2MycGEuc2lnbmF0dXJla2V4cGxhbmF0aW9udWNsYWltIHNpZ25hdHVyZSB2YWxpZKNkY29kZXgYY2xhaW1TaWduYXR1cmUudmFsaWRhdGVkY3VybHhNc2VsZiNqdW1iZj0vYzJwYS91cm46YzJwYTo5ZTMyMmI1Yi00NDRkLTRmM2EtOGJiNy0xNjQ5NjFjM2UyZjcvYzJwYS5zaWduYXR1cmVrZXhwbGFuYXRpb251Y2xhaW0gc2lnbmF0dXJlIHZhbGlko2Rjb2RleBlhc3NlcnRpb24uaGFzaGVkVVJJLm1hdGNoY3VybHhec2VsZiNqdW1iZj0vYzJwYS91cm46YzJwYTo5ZTMyMmI1Yi00NDRkLTRmM2EtOGJiNy0xNjQ5NjFjM2UyZjcvYzJwYS5hc3NlcnRpb25zL2MycGEuYWN0aW9ucy52MmtleHBsYW5hdGlvbng+aGFzaGVkIHVyaSBtYXRjaGVkOiBzZWxmI2p1bWJmPWMycGEuYXNzZXJ0aW9ucy9jMnBhLmFjdGlvbnMudjKjZGNvZGV4GWFzc2VydGlvbi5oYXNoZWRVUkkubWF0Y2hjdXJseF1zZWxmI2p1bWJmPS9jMnBhL3VybjpjMnBhOjllMzIyYjViLTQ0NGQtNGYzYS04YmI3LTE2NDk2MWMzZTJmNy9jMnBhLmFzc2VydGlvbnMvYzJwYS5oYXNoLmRhdGFrZXhwbGFuYXRpb254PWhhc2hlZCB1cmkgbWF0Y2hlZDogc2VsZiNqdW1iZj1jMnBhLmFzc2VydGlvbnMvYzJwYS5oYXNoLmRhdGGjZGNvZGV4GWFzc2VydGlvbi5oYXNoZWRVUkkubWF0Y2hjdXJseGFzZWxmI2p1bWJmPS9jMnBhL3VybjpjMnBhOjllMzIyYjViLTQ0NGQtNGYzYS04YmI3LTE2NDk2MWMzZTJmNy9jMnBhLmFzc2VydGlvbnMvYzJwYS5pbmdyZWRpZW50LnYza2V4cGxhbmF0aW9ueEFoYXNoZWQgdXJpIG1hdGNoZWQ6IHNlbGYjanVtYmY9YzJwYS5hc3NlcnRpb25zL2MycGEuaW5ncmVkaWVudC52M6NkY29kZXgYYXNzZXJ0aW9uLmRhdGFIYXNoLm1hdGNoY3VybHhdc2VsZiNqdW1iZj0vYzJwYS91cm46YzJwYTo5ZTMyMmI1Yi00NDRkLTRmM2EtOGJiNy0xNjQ5NjFjM2UyZjcvYzJwYS5hc3NlcnRpb25zL2MycGEuaGFzaC5kYXRha2V4cGxhbmF0aW9ub2RhdGEgaGFzaCB2YWxpZG1pbmZvcm1hdGlvbmFsgGdmYWlsdXJlgaNkY29kZXgbc2lnbmluZ0NyZWRlbnRpYWwudW50cnVzdGVkY3VybHhNc2VsZiNqdW1iZj0vYzJwYS91cm46YzJwYTo5ZTMyMmI1Yi00NDRkLTRmM2EtOGJiNy0xNjQ5NjFjM2UyZjcvYzJwYS5zaWduYXR1cmVrZXhwbGFuYXRpb254HXNpZ25pbmcgY2VydGlmaWNhdGUgdW50cnVzdGVkcGluZ3JlZGllbnREZWx0YXOBonZpbmdyZWRpZW50QXNzZXJ0aW9uVVJJeGFzZWxmI2p1bWJmPS9jMnBhL3VybjpjMnBhOjllMzIyYjViLTQ0NGQtNGYzYS04YmI3LTE2NDk2MWMzZTJmNy9jMnBhLmFzc2VydGlvbnMvYzJwYS5pbmdyZWRpZW50LnYzcHZhbGlkYXRpb25EZWx0YXOjZ3N1Y2Nlc3OAbWluZm9ybWF0aW9uYWyBo2Rjb2RleBxpbmdyZWRpZW50LnVua25vd25Qcm92ZW5hbmNlY3VybHhhc2VsZiNqdW1iZj0vYzJwYS91cm46YzJwYTo5ZTMyMmI1Yi00NDRkLTRmM2EtOGJiNy0xNjQ5NjFjM2UyZjcvYzJwYS5hc3NlcnRpb25zL2MycGEuaW5ncmVkaWVudC52M2tleHBsYW5hdGlvbngrc291cmNlOiBpbmdyZWRpZW50IGRvZXMgbm90IGhhdmUgcHJvdmVuYW5jZWdmYWlsdXJlgGppbnN0YW5jZUlEeCx4bXA6aWlkOmFhZGJjNWEyLWM4OWQtNGU2MC05Mzc4LTdiZjE4NjkxMzNiZW5hY3RpdmVNYW5pZmVzdKNjdXJseD5zZWxmI2p1bWJmPS9jMnBhL3VybjpjMnBhOjllMzIyYjViLTQ0NGQtNGYzYS04YmI3LTE2NDk2MWMzZTJmN2NhbGdmc2hhMjU2ZGhhc2hYIDa3rTNyZsUAT8+dQIHkWLu9dlhXrRXgFUPwZF6ghygubmNsYWltU2lnbmF0dXJlo2N1cmx4TXNlbGYjanVtYmY9L2MycGEvdXJuOmMycGE6OWUzMjJiNWItNDQ0ZC00ZjNhLThiYjctMTY0OTYxYzNlMmY3L2MycGEuc2lnbmF0dXJlY2FsZ2ZzaGEyNTZkaGFzaFggMbhFr+IR+pC66q1GtKI0vz8m8O5SI2IWtOdociZ1QUwAAAH1anVtYgAAAEFqdW1kY2JvcgARABCAAACqADibcRNjMnBhLmFjdGlvbnMudjIAAAAAGGMyc2ianiiYu1F3fugCm0SewimgAAABrGNib3KhZ2FjdGlvbnOComZhY3Rpb25rYzJwYS5vcGVuZWRqcGFyYW1ldGVyc6FraW5ncmVkaWVudHOBomN1cmx4LXNlbGYjanVtYmY9YzJwYS5hc3NlcnRpb25zL2MycGEuaW5ncmVkaWVudC52M2RoYXNoWCAAV57YOT5iZwJ5Y1DRyfqOXA0zEPaVTAFtoCysiFtxm6RmYWN0aW9ua2MycGEuZWRpdGVkanBhcmFtZXRlcnOha2luZ3JlZGllbnRzgaJjdXJseC1zZWxmI2p1bWJmPWMycGEuYXNzZXJ0aW9ucy9jMnBhLmluZ3JlZGllbnQudjNkaGFzaFggAFee2Dk+YmcCeWNQ0cn6jlwNMxD2lUwBbaAsrIhbcZtxZGlnaXRhbFNvdXJjZVR5cGV4U2h0dHA6Ly9jdi5pcHRjLm9yZy9uZXdzY29kZXMvZGlnaXRhbHNvdXJjZXR5cGUvY29tcG9zaXRlV2l0aFRyYWluZWRBbGdvcml0aG1pY01lZGlha2Rlc2NyaXB0aW9udkNyZWF0ZWQgYnkgUmVjcmFmdCBBSS4AAADEanVtYgAAAEBqdW1kY2JvcgARABCAAACqADibcRNjMnBhLmhhc2guZGF0YQAAAAAYYzJzaHG1hAVL5TVZ+cZ1igmhAlMAAAB8Y2JvcqVqZXhjbHVzaW9uc4GiZXN0YXJ0GOhmbGVuZ3RoGTFIZG5hbWVuanVtYmYgbWFuaWZlc3RjYWxnZnNoYTI1NmRoYXNoWCDtk+TyMdLv7RbSG4ZyQt3/vkR9HCTPW9bxBQ2VgIDS52NwYWRJAAAAAAAAAAAAAAACpGp1bWIAAAAnanVtZGMyY2wAEQAQgAAAqgA4m3EDYzJwYS5jbGFpbS52MgAAAAJ1Y2JvcqdqaW5zdGFuY2VJRHgseG1wOmlpZDo3ZDZlYzIyNy0wM2UyLTQ1ZTctOTM0MS02NTIxZDU1Mzg5ZmZ0Y2xhaW1fZ2VuZXJhdG9yX2luZm+jZG5hbWVqcmVjcmFmdC5haWd2ZXJzaW9ueCg4MWNlODJlMmM1YzNjYmZiZThjNmZiZTE3OWQ1ZjhkOTFjNDA5Y2Uxd29yZy5jb250ZW50YXV0aC5jMnBhX3JzZjAuOTAuN2lzaWduYXR1cmV4TXNlbGYjanVtYmY9L2MycGEvdXJuOmMycGE6ZTgzYjU0ODEtNjkyOC00MmQ2LWIyMDgtNTk2NGViMmQ1MDg1L2MycGEuc2lnbmF0dXJlcmNyZWF0ZWRfYXNzZXJ0aW9uc4KiY3VybHgqc2VsZiNqdW1iZj1jMnBhLmFzc2VydGlvbnMvYzJwYS5hY3Rpb25zLnYyZGhhc2hYIMd9w28lLRGUjzJX8H7Fh/an9yaPCAnZQ1tDAXMuiQomomN1cmx4KXNlbGYjanVtYmY9YzJwYS5hc3NlcnRpb25zL2MycGEuaGFzaC5kYXRhZGhhc2hYIMsUZsqimWUhogtTtfdlT0J+U6C1eb2P/LcEvEW25/IXc2dhdGhlcmVkX2Fzc2VydGlvbnOBomN1cmx4LXNlbGYjanVtYmY9YzJwYS5hc3NlcnRpb25zL2MycGEuaW5ncmVkaWVudC52M2RoYXNoWCAAV57YOT5iZwJ5Y1DRyfqOXA0zEPaVTAFtoCysiFtxm2hkYzp0aXRsZXgaUmVjcmFmdCBBSSBHZW5lcmF0ZWQgSW1hZ2VjYWxnZnNoYTI1NgAAB9xqdW1iAAAAKGp1bWRjMmNzABEAEIAAAKoAOJtxA2MycGEuc2lnbmF0dXJlAAAAB6xjYm9y0oRZA7CiASYYIYJZAecwggHjMIIBiaADAgECAgkAt95aY0NRbnowCgYIKoZIzj0EAwIwQDEfMB0GA1UEAwwWUmVjcmFmdCBTdGFnaW5nIERldiBDQTEQMA4GA1UECgwHUmVjcmFmdDELMAkGA1UEBhMCVVMwHhcNMjYwNjEyMTk0MzUwWhcNMjcwNjEyMTk0MzUwWjA3MQswCQYDVQQGEwJVUzETMBEGA1UEChMKUmVjcmFmdCBBSTETMBEGA1UEAxMKcmVjcmFmdC5haTBZMBMGByqGSM49AgEGCCqGSM49AwEHA0IABEppNVsAKyD8N4bct47Fh0gP9UDoQUbvcTo6Sdv4oiIIUnKBFTPi543bP+3aphvoIhS9LxG+A6KIKV+iqxi3DzWjdTBzMAwGA1UdEwEB/wQCMAAwDgYDVR0PAQH/BAQDAgbAMBMGA1UdJQQMMAoGCCsGAQUFBwMEMB0GA1UdDgQWBBQvMekF6f3pIvXLgg8drwyQyyFd/TAfBgNVHSMEGDAWgBQCCyo4Gsqql0r/+b+TFmjtlHh5tzAKBggqhkjOPQQDAgNIADBFAiBTyEpbRpe++TxJCBUU2RrHr1ib1p7waxPZFlNDD4HnUAIhALQPgGQShEPg3SvZlGQ3LQdlpbdYgLL9BkY33mKUXjLMWQG9MIIBuTCCAV+gAwIBAgIJAJz5aDtPoBNvMAoGCCqGSM49BAMCMEAxHzAdBgNVBAMMFlJlY3JhZnQgU3RhZ2luZyBEZXYgQ0ExEDAOBgNVBAoMB1JlY3JhZnQxCzAJBgNVBAYTAlVTMB4XDTI2MDYxMjE5NDAxNloXDTI4MDYxMTE5NDAxNlowQDEfMB0GA1UEAwwWUmVjcmFmdCBTdGFnaW5nIERldiBDQTEQMA4GA1UECgwHUmVjcmFmdDELMAkGA1UEBhMCVVMwWTATBgcqhkjOPQIBBggqhkjOPQMBBwNCAARD0hAGVxVspoo9itBJ86Ev/TSzvFQMLtGKci4s78jWT33L3KHqhYX2Q/Fo/63HW/U944vfKtWq4nvfQfRkaIPKo0IwQDAPBgNVHRMBAf8EBTADAQH/MA4GA1UdDwEB/wQEAwIBhjAdBgNVHQ4EFgQUAgsqOBrKqpdK//m/kxZo7ZR4ebcwCgYIKoZIzj0EAwIDSAAwRQIgVDA0iYuVgN5CGOAX5mKpNuBy7NKqY4nDdDaVD+G7zcUCIQD07xwub/F+hUuoHiO11u4fOLdYv6nZE34NEaTClizBW6FjcGFkWQOkAAAAAAAAAAAAAAAAAAAAAAAAAAAAAAAAAAAAAAAAAAAAAAAAAAAAAAAAAAAAAAAAAAAAAAAAAAAAAAAAAAAAAAAAAAAAAAAAAAAAAAAAAAAAAAAAAAAAAAAAAAAAAAAAAAAAAAAAAAAAAAAAAAAAAAAAAAAAAAAAAAAAAAAAAAAAAAAAAAAAAAAAAAAAAAAAAAAAAAAAAAAAAAAAAAAAAAAAAAAAAAAAAAAAAAAAAAAAAAAAAAAAAAAAAAAAAAAAAAAAAAAAAAAAAAAAAAAAAAAAAAAAAAAAAAAAAAAAAAAAAAAAAAAAAAAAAAAAAAAAAAAAAAAAAAAAAAAAAAAAAAAAAAAAAAAAAAAAAAAAAAAAAAAAAAAAAAAAAAAAAAAAAAAAAAAAAAAAAAAAAAAAAAAAAAAAAAAAAAAAAAAAAAAAAAAAAAAAAAAAAAAAAAAAAAAAAAAAAAAAAAAAAAAAAAAAAAAAAAAAAAAAAAAAAAAAAAAAAAAAAAAAAAAAAAAAAAAAAAAAAAAAAAAAAAAAAAAAAAAAAAAAAAAAAAAAAAAAAAAAAAAAAAAAAAAAAAAAAAAAAAAAAAAAAAAAAAAAAAAAAAAAAAAAAAAAAAAAAAAAAAAAAAAAAAAAAAAAAAAAAAAAAAAAAAAAAAAAAAAAAAAAAAAAAAAAAAAAAAAAAAAAAAAAAAAAAAAAAAAAAAAAAAAAAAAAAAAAAAAAAAAAAAAAAAAAAAAAAAAAAAAAAAAAAAAAAAAAAAAAAAAAAAAAAAAAAAAAAAAAAAAAAAAAAAAAAAAAAAAAAAAAAAAAAAAAAAAAAAAAAAAAAAAAAAAAAAAAAAAAAAAAAAAAAAAAAAAAAAAAAAAAAAAAAAAAAAAAAAAAAAAAAAAAAAAAAAAAAAAAAAAAAAAAAAAAAAAAAAAAAAAAAAAAAAAAAAAAAAAAAAAAAAAAAAAAAAAAAAAAAAAAAAAAAAAAAAAAAAAAAAAAAAAAAAAAAAAAAAAAAAAAAAAAAAAAAAAAAAAAAAAAAAAAAAAAAAAAAAAAAAAAAAAAAAAAAAAAAAAAAAAAAAAAAAAAAAAAAAAAAAAAAAAAAAAAAAAAAAAAAAAAAAAAAAAAAAAAAAAAAAAAAAAAAAAAAAAAAAAAAAAAAAAAAAAAAAAAAAAAAAAAAAAAAAAAAAAAAAAAAAAAAAAAAAAAAAAAAAAAAAAAAAAAAAAAAAAAAAAAAAAAAAAAAAAAAAAAAAAAAAD2WECFGXcMey+pK42xmCCs/jvP5buKLUSngQU9omiSmuJBDDwG4364XmlUGFs7kAM6TXgx2sE/0B0xxeRRw4gPRfR1</c2pa:manifest></metadata><path fill="#0A1D17" d="M69.8136 9.28323C74.7789 9.03767 87.1484 9.18891 91.6148 9.94638C92.1797 16.1916 91.7794 22.9351 91.7922 29.2906C92.365 29.7566 92.9192 30.245 93.4534 30.7548C100.444 37.4234 100.331 45.8437 100.54 54.9201C106.324 56.4101 107.137 60.8579 109.853 65.3415C114.656 73.272 114.636 76.593 113.387 85.4408C115.553 88.0786 122.455 98.6509 123.712 101.702C121.003 104.806 108.922 112.45 105.121 114.48C101.165 110.216 97.0527 102.831 93.3905 97.9312C86.3757 95.9185 83.3498 94.9151 79.0404 88.8718C78.506 88.1394 77.844 86.8279 77.3916 85.9942C74.2977 90.9597 72.299 93.9804 66.5153 96.1599C64.7693 96.8178 62.5938 97.4482 60.9701 98.2679C57.4579 103.039 52.703 111.334 48.6179 115.214C44.208 113.415 33.5212 106.069 29.9061 102.809C32.4858 96.9853 37.6401 91.3795 41.0241 85.4802C39.4473 78.2158 40.2162 72.5588 44.1648 66.2665C46.8246 62.0279 48.0533 56.6821 53.2872 55.1333C55.5038 55.5965 56.6171 55.8669 58.5147 57.2458C59.3316 55.712 60.4862 54.0342 61.4534 52.5591C61.4355 46.2566 60.5864 40.3438 64.417 35.274C65.6058 33.7006 67.5445 31.1886 68.4777 29.6383C68.3418 24.0975 68.1976 16.1487 68.6848 10.5271C68.7444 9.83881 69.3137 9.55669 69.8136 9.28323ZM88.128 31.2376C87.3978 27.9066 87.8138 17.5428 87.7649 13.5008C82.7145 13.4538 77.6638 13.4422 72.6133 13.4661C72.6806 16.0499 72.5141 18.6306 72.5294 21.215C72.5479 24.3196 73.0216 28.0955 72.3986 31.1345C71.6829 34.6265 67.4388 36.8018 66.2587 40.3038C65.4116 42.8174 64.8578 69.2078 66.043 70.3565C66.1664 70.4761 66.3065 70.5592 66.4606 70.6334C70.9661 69.4541 64.9899 54.6406 71.0262 55.1845C74.4237 57.4391 70.5839 71.5278 73.1146 74.3577C73.7524 74.5575 73.5025 74.5511 74.1819 74.2744C76.7402 70.6288 73.5035 56.9945 76.4835 55.2936C77.3589 55.2268 77.5618 55.1803 78.3508 55.7529C78.972 56.2037 79.5467 57.4402 79.5422 58.2135C79.5114 63.4338 79.4963 68.776 79.4963 73.9875C80.2827 74.6743 79.9775 74.5963 80.935 74.6926C84.5887 72.2713 80.1688 58.2789 83.6316 55.5208C89.5704 54.3871 84.1597 71.0584 87.1226 74.2195L87.6136 74.3988C90.9794 71.9711 87.4069 55.6565 90.0124 53.3224C93.2221 52.2328 93.5947 58.0206 95.7755 58.0583C97.5941 56.1953 95.834 43.2064 94.8711 40.5595C93.5363 36.8901 90.4181 34.2 88.128 31.2376ZM45.6428 85.7393C44.1337 88.9064 37.1521 99.0593 34.7064 101.711C37.1995 103.112 45.5688 108.602 47.6707 110.391C49.7401 107.51 51.7912 104.286 53.781 101.323C57.6761 94.9829 57.4172 94.1671 64.6327 92.7699C67.7585 92.1647 73.1696 85.1607 74.8447 82.4663L74.8755 82.4157C70.6506 77.5023 70.3396 75.6703 64.2173 74.5028C60.1598 73.729 61.0684 63.4839 61.6562 60.0133C60.3154 61.9762 57.5138 67.4504 54.774 66.1834C53.1596 63.7266 56.6249 60.078 53.4453 59.0838C50.8585 62.4892 48.8668 66.0664 46.869 69.8261C43.8934 75.4258 43.849 79.7502 45.6428 85.7393ZM84.2795 77.9826C82.0259 79.5112 81.2845 80.1976 79.681 82.3958C84.9726 90.338 85.8625 91.8979 95.3362 93.9242C97.661 96.422 99.2857 99.0465 101.141 101.885C102.811 104.32 104.53 106.915 106.241 109.305C108.259 107.524 116.373 102.166 118.839 100.693C117.185 98.6526 109.863 88.2828 109.155 85.9947C109.328 83.8546 109.944 80.544 110.168 78.7296C110.629 74.9982 103.383 59.9416 100.286 59.0724C98.5305 61.8939 101.432 64.4606 99.1674 66.2024C96.5282 66.5374 94.6979 62.9173 93.4675 60.9848C93.541 67.9078 95.2817 81.1969 84.2795 77.9826Z"/></svg>